<?xml version="1.0" encoding="UTF-8"?>
<svg id="katman_1" data-name="katman 1" xmlns="http://www.w3.org/2000/svg" version="1.1" viewBox="0 0 1202 190.77">
  <defs>
    <style>
      .cls-1 {
        fill: #5b5b5b;
      }

      .cls-1, .cls-2 {
        fill-rule: evenodd;
        stroke-width: 0px;
      }

      .cls-2 {
        fill: #fefefe;
      }
    </style>
  </defs>
  <path class="cls-2" d="M0,183.62s92.43,7.36,168.29-12.17c75.86-19.53,158.23-53.39,202.51-57.95,44.28-4.56,107.22-3.82,133.32,1.84,26.1,5.66,99.74,23.01,119.47,25.81,19.73,2.79,84.89,14.15,129.19.19,44.3-13.96,129.19-48.78,143.06-56.14,0,0,168.61-90.83,304.16-82.67v188.25H0v-7.14Z"/>
  <path class="cls-1" d="M1200,2.52c-135.55-8.16-304.16,82.67-304.16,82.67-13.87,7.36-98.76,42.18-143.06,56.14-44.3,13.96-109.46,2.61-129.19-.19-19.73-2.79-93.38-20.14-119.47-25.81-26.1-5.66-89.04-6.4-133.32-1.84-44.28,4.56-126.65,38.42-202.51,57.95C92.43,190.99,0,183.62,0,183.62v3.57s92.43,7.36,168.29-12.17c75.86-19.53,158.23-53.39,202.51-57.95,44.28-4.56,107.22-3.82,133.32,1.84,26.1,5.66,99.74,23.01,119.47,25.81,19.73,2.79,84.89,14.15,129.19.19,44.3-13.96,129.19-48.78,143.06-56.14,0,0,168.61-90.83,304.16-82.67v-3.57Z"/>
</svg>